{
    "asset": {
        "generator": "Khronos glTF Blender I/O v1.6.16",
        "version": "2.0"
    },
    "scene": 0,
    "scenes": [
        {
            "name": "Scene",
            "nodes": [0]
        }
    ],
    "nodes": [
        {
            "mesh": 0,
            "name": "sphere_gltf"
        }
    ],
    "materials": [
        {
            "doubleSided": true,
            "name": "rocks_ground_04",
            "normalTexture": {
                "index": 0
            },
            "pbrMetallicRoughness": {
                "baseColorTexture": {
                    "index": 1
                },
                "metallicFactor": 0,
                "metallicRoughnessTexture": {
                    "index": 2
                }
            }
        }
    ],
    "meshes": [
        {
            "name": "Sphere.001",
            "primitives": [
                {
                    "attributes": {
                        "POSITION": 0,
                        "NORMAL": 1,
                        "TEXCOORD_0": 2
                    },
                    "indices": 3,
                    "material": 0
                }
            ]
        }
    ],
    "textures": [
        {
            "sampler": 0,
            "source": 0
        },
        {
            "sampler": 0,
            "source": 1
        },
        {
            "sampler": 0,
            "source": 2
        }
    ],
    "images": [
        {
            "mimeType": "image/jpeg",
            "name": "rocks_ground_04_nor_gl_4k",
            "uri": "textures/rocks_ground_04_nor_gl_1k.jpg"
        },
        {
            "mimeType": "image/jpeg",
            "name": "rocks_ground_04_diff_4k",
            "uri": "textures/rocks_ground_04_diff_1k.jpg"
        },
        {
            "mimeType": "image/jpeg",
            "name": "rocks_ground_04_rough_4k",
            "uri": "textures/rocks_ground_04_rough_1k.jpg"
        }
    ],
    "accessors": [
        {
            "bufferView": 0,
            "componentType": 5126,
            "count": 53890,
            "max": [0.9867436289787292, 1.0568431615829468, 1.0799810886383057],
            "min": [-0.9867439270019531, -1.0554581880569458, -1.07999849319458],
            "type": "VEC3"
        },
        {
            "bufferView": 1,
            "componentType": 5126,
            "count": 53890,
            "type": "VEC3"
        },
        {
            "bufferView": 2,
            "componentType": 5126,
            "count": 53890,
            "type": "VEC2"
        },
        {
            "bufferView": 3,
            "componentType": 5123,
            "count": 322170,
            "type": "SCALAR"
        }
    ],
    "bufferViews": [
        {
            "buffer": 0,
            "byteLength": 646680,
            "byteOffset": 0
        },
        {
            "buffer": 0,
            "byteLength": 646680,
            "byteOffset": 646680
        },
        {
            "buffer": 0,
            "byteLength": 431120,
            "byteOffset": 1293360
        },
        {
            "buffer": 0,
            "byteLength": 644340,
            "byteOffset": 1724480
        }
    ],
    "samplers": [
        {
            "magFilter": 9729,
            "minFilter": 9987
        }
    ],
    "buffers": [
        {
            "byteLength": 2368820,
            "uri": "rocks_ground_04.bin"
        }
    ]
}
